<mxfile host="Electron" modified="2023-12-28T13:52:19.213Z" agent="Mozilla/5.0 (X11; Linux x86_64) AppleWebKit/537.36 (KHTML, like Gecko) draw.io/22.1.11 Chrome/114.0.5735.289 Electron/25.9.8 Safari/537.36" etag="GMWIVNr9L5bGaMyOtUR-" version="22.1.11" type="device">
  <diagram name="Page-1" id="qAL2g1Sv3i67727kggoN">
    <mxGraphModel dx="818" dy="531" grid="1" gridSize="10" guides="1" tooltips="1" connect="1" arrows="1" fold="1" page="1" pageScale="1" pageWidth="827" pageHeight="1169" math="0" shadow="0">
      <root>
        <mxCell id="0" />
        <mxCell id="1" parent="0" />
        <mxCell id="NZljcihYPRcfHm1S0TlY-6" value="Tools like Debeizum" style="rounded=0;whiteSpace=wrap;html=1;" vertex="1" parent="1">
          <mxGeometry x="240" y="82.5" width="130" height="45" as="geometry" />
        </mxCell>
        <mxCell id="NZljcihYPRcfHm1S0TlY-8" value="Spark" style="rounded=0;whiteSpace=wrap;html=1;" vertex="1" parent="1">
          <mxGeometry x="40" y="250" width="130" height="40" as="geometry" />
        </mxCell>
        <mxCell id="NZljcihYPRcfHm1S0TlY-11" value="" style="endArrow=classic;startArrow=classic;html=1;rounded=0;entryX=0.5;entryY=0;entryDx=0;entryDy=0;exitX=0.5;exitY=1;exitDx=0;exitDy=0;fillColor=#f8cecc;strokeColor=#b85450;gradientColor=#ea6b66;" edge="1" parent="1" source="NZljcihYPRcfHm1S0TlY-30" target="NZljcihYPRcfHm1S0TlY-8">
          <mxGeometry width="50" height="50" relative="1" as="geometry">
            <mxPoint x="110" y="130" as="sourcePoint" />
            <mxPoint x="100" y="250" as="targetPoint" />
          </mxGeometry>
        </mxCell>
        <mxCell id="NZljcihYPRcfHm1S0TlY-61" value="3" style="edgeLabel;html=1;align=center;verticalAlign=middle;resizable=0;points=[];" vertex="1" connectable="0" parent="NZljcihYPRcfHm1S0TlY-11">
          <mxGeometry x="0.0435" y="-1" relative="1" as="geometry">
            <mxPoint as="offset" />
          </mxGeometry>
        </mxCell>
        <mxCell id="NZljcihYPRcfHm1S0TlY-13" value="" style="endArrow=classic;startArrow=classic;html=1;rounded=0;entryX=0;entryY=0.25;entryDx=0;entryDy=0;fillColor=#dae8fc;gradientColor=#7ea6e0;strokeColor=#6c8ebf;" edge="1" parent="1" target="NZljcihYPRcfHm1S0TlY-32">
          <mxGeometry width="50" height="50" relative="1" as="geometry">
            <mxPoint x="170" y="273" as="sourcePoint" />
            <mxPoint x="240" y="268.75" as="targetPoint" />
          </mxGeometry>
        </mxCell>
        <mxCell id="NZljcihYPRcfHm1S0TlY-18" value="" style="endArrow=classic;startArrow=classic;html=1;rounded=0;exitX=0.5;exitY=0;exitDx=0;exitDy=0;entryX=0.5;entryY=1;entryDx=0;entryDy=0;fillColor=#f8cecc;gradientColor=#ea6b66;strokeColor=#b85450;" edge="1" parent="1" source="NZljcihYPRcfHm1S0TlY-33" target="NZljcihYPRcfHm1S0TlY-6">
          <mxGeometry width="50" height="50" relative="1" as="geometry">
            <mxPoint x="305" y="227.5" as="sourcePoint" />
            <mxPoint x="470" y="160" as="targetPoint" />
          </mxGeometry>
        </mxCell>
        <mxCell id="NZljcihYPRcfHm1S0TlY-59" value="1" style="edgeLabel;html=1;align=center;verticalAlign=middle;resizable=0;points=[];" vertex="1" connectable="0" parent="NZljcihYPRcfHm1S0TlY-18">
          <mxGeometry x="0.1317" relative="1" as="geometry">
            <mxPoint as="offset" />
          </mxGeometry>
        </mxCell>
        <mxCell id="NZljcihYPRcfHm1S0TlY-19" value="" style="endArrow=classic;startArrow=classic;html=1;rounded=0;entryX=0;entryY=0.5;entryDx=0;entryDy=0;fillColor=#f8cecc;gradientColor=#ea6b66;strokeColor=#b85450;" edge="1" parent="1" target="NZljcihYPRcfHm1S0TlY-6">
          <mxGeometry width="50" height="50" relative="1" as="geometry">
            <mxPoint x="170" y="105" as="sourcePoint" />
            <mxPoint x="230" y="180" as="targetPoint" />
          </mxGeometry>
        </mxCell>
        <mxCell id="NZljcihYPRcfHm1S0TlY-60" value="2" style="edgeLabel;html=1;align=center;verticalAlign=middle;resizable=0;points=[];" vertex="1" connectable="0" parent="NZljcihYPRcfHm1S0TlY-19">
          <mxGeometry x="-0.0571" relative="1" as="geometry">
            <mxPoint as="offset" />
          </mxGeometry>
        </mxCell>
        <mxCell id="NZljcihYPRcfHm1S0TlY-30" value="HDFS, S3,&lt;br&gt;Azure Blob, etc" style="rounded=0;whiteSpace=wrap;html=1;" vertex="1" parent="1">
          <mxGeometry x="40" y="90" width="130" height="45" as="geometry" />
        </mxCell>
        <mxCell id="NZljcihYPRcfHm1S0TlY-31" value="Internal" style="rounded=0;whiteSpace=wrap;html=1;" vertex="1" parent="1">
          <mxGeometry x="40" y="60" width="130" height="30" as="geometry" />
        </mxCell>
        <mxCell id="NZljcihYPRcfHm1S0TlY-32" value="MySQL, MongoDB, Snowflake, Kafka, etc" style="rounded=0;whiteSpace=wrap;html=1;" vertex="1" parent="1">
          <mxGeometry x="235" y="260" width="140" height="50" as="geometry" />
        </mxCell>
        <mxCell id="NZljcihYPRcfHm1S0TlY-33" value="External" style="rounded=0;whiteSpace=wrap;html=1;" vertex="1" parent="1">
          <mxGeometry x="235" y="230" width="140" height="30" as="geometry" />
        </mxCell>
      </root>
    </mxGraphModel>
  </diagram>
</mxfile>
